{"asset":{"version":"2.0","generator":"VECTARY"},"nodes":[{"translation":[0,-4.440892098500626e-19,0.007663528442382813],"scale":[0.001,0.001,0.001],"rotation":[-0.7071067811865475,0,0,0.7071067811865476],"name":"Laptop","children":[1]},{"translation":[0,7.6635284423828125,0],"scale":[1,1,1],"rotation":[0,0,0,1],"name":"Laptop","children":[2,3,4,5,6,7,8,9,10,11,12,13]},{"translation":[0,0,0],"scale":[1,1,1],"rotation":[0,0,0,1],"name":"Screen","mesh":0},{"translation":[0,0,0],"scale":[1,1,1],"rotation":[0,0,0,1],"name":"Keyboard","mesh":1},{"translation":[0,0,0],"scale":[1,1,1],"rotation":[0,0,0,1],"name":"Body","mesh":2},{"translation":[0,0,0],"scale":[1,1,1],"rotation":[0,0,0,1],"name":"Connector","mesh":3},{"translation":[0,0,0],"scale":[1,1,1],"rotation":[0,0,0,1],"name":"Top","mesh":4},{"translation":[0,0,0],"scale":[1,1,1],"rotation":[0,0,0,1],"name":"Black_Frame","mesh":5},{"translation":[0,0,0],"scale":[1,1,1],"rotation":[0,0,0,1],"name":"Black_Frame_2","mesh":6},{"translation":[0,0,0],"scale":[1,1,1],"rotation":[0,0,0,1],"name":"Connectors","mesh":7},{"translation":[0,0,0],"scale":[1,1,1],"rotation":[0,0,0,1],"name":"Touchpad","mesh":8},{"translation":[0,0,0],"scale":[1,1,1],"rotation":[0,0,0,1],"name":"Stands","mesh":9},{"translation":[0,0,0],"scale":[1,1,1],"rotation":[0,0,0,1],"name":"Screws","mesh":10},{"translation":[0,0,0],"scale":[1,1,1],"rotation":[0,0,0,1],"name":"Speaker","mesh":11}],"materials":[{"pbrMetallicRoughness":{"baseColorFactor":[1,1,1,1],"baseColorTexture":{"index":0,"extensions":{"KHR_texture_transform":{"offset":[0,0],"scale":[1,1],"rotation":0}},"texCoord":0},"metallicFactor":0.18,"roughnessFactor":0.2},"name":"Incognito","emissiveFactor":[0,0,0],"extensions":{},"alphaMode":"OPAQUE","doubleSided":false},{"pbrMetallicRoughness":{"baseColorFactor":[1,1,1,1],"baseColorTexture":{"index":1,"extensions":{"KHR_texture_transform":{"offset":[0,0],"scale":[1,1],"rotation":0}},"texCoord":0},"metallicFactor":0,"roughnessFactor":0.5},"name":"Keyboard","emissiveFactor":[0,0,0],"extensions":{},"alphaMode":"OPAQUE","doubleSided":false},{"pbrMetallicRoughness":{"baseColorFactor":[0.5795466117825252,0.5795466117825252,0.5795466117825252,1],"metallicFactor":1,"roughnessFactor":0.53},"name":"Body","emissiveFactor":[0,0,0],"extensions":{},"alphaMode":"OPAQUE","doubleSided":false},{"pbrMetallicRoughness":{"baseColorFactor":[0,0,0,1],"metallicFactor":0,"roughnessFactor":0.8},"name":"Connector","emissiveFactor":[0,0,0],"occlusionTexture":{"index":2,"strength":1,"extensions":{"KHR_texture_transform":{"offset":[0,0],"scale":[1,1],"rotation":0}},"texCoord":1},"extensions":{},"alphaMode":"OPAQUE","doubleSided":false},{"pbrMetallicRoughness":{"baseColorFactor":[0.0036972395789001307,0.0036972395789001307,0.0036972395789001307,1],"metallicFactor":0,"roughnessFactor":0.2},"name":"Display Rim","emissiveFactor":[0,0,0],"occlusionTexture":{"index":3,"strength":1,"extensions":{"KHR_texture_transform":{"offset":[0,0],"scale":[1,1],"rotation":0}},"texCoord":1},"extensions":{},"alphaMode":"OPAQUE","doubleSided":false},{"pbrMetallicRoughness":{"baseColorFactor":[0,0,0,1],"metallicFactor":0,"roughnessFactor":0.8},"name":"Rubber","emissiveFactor":[0,0,0],"occlusionTexture":{"index":2,"strength":1,"extensions":{"KHR_texture_transform":{"offset":[0,0],"scale":[1,1],"rotation":0}},"texCoord":1},"extensions":{},"alphaMode":"OPAQUE","doubleSided":false},{"pbrMetallicRoughness":{"baseColorFactor":[0,0,0,1],"metallicFactor":0,"roughnessFactor":0.8},"name":"Connectors","emissiveFactor":[0,0,0],"occlusionTexture":{"index":2,"strength":1,"extensions":{"KHR_texture_transform":{"offset":[0,0],"scale":[1,1],"rotation":0}},"texCoord":1},"extensions":{},"alphaMode":"OPAQUE","doubleSided":false},{"pbrMetallicRoughness":{"baseColorFactor":[0.4423229488192018,0.4423229488192018,0.4423229488192018,1],"metallicFactor":0.5,"roughnessFactor":0.5},"name":"Touchpad","emissiveFactor":[0,0,0],"occlusionTexture":{"index":2,"strength":1,"extensions":{"KHR_texture_transform":{"offset":[0,0],"scale":[1,1],"rotation":0}},"texCoord":1},"extensions":{},"alphaMode":"OPAQUE","doubleSided":false},{"pbrMetallicRoughness":{"baseColorFactor":[0.5174013674966733,0.5174013674966733,0.5174013674966733,1],"metallicFactor":1,"roughnessFactor":0.2},"name":"Bottom Screws","emissiveFactor":[0,0,0],"occlusionTexture":{"index":3,"strength":1,"extensions":{"KHR_texture_transform":{"offset":[0,0],"scale":[1,1],"rotation":0}},"texCoord":1},"extensions":{},"alphaMode":"OPAQUE","doubleSided":false},{"pbrMetallicRoughness":{"baseColorFactor":[0,0,0,1],"metallicFactor":0,"roughnessFactor":1},"name":"Speaker","emissiveFactor":[0,0,0],"occlusionTexture":{"index":2,"strength":1,"extensions":{"KHR_texture_transform":{"offset":[0,0],"scale":[1,1],"rotation":0}},"texCoord":1},"extensions":{},"alphaMode":"OPAQUE","doubleSided":false}],"textures":[{"sampler":0,"source":0},{"sampler":0,"source":1},{"sampler":0,"source":2},{"sampler":0,"source":3}],"images":[{"uri":"b3.jpg","mimeType":"image/jpeg"},{"uri":"Emission_keyboard.jpg","mimeType":"image/jpeg"},{"uri":"White.jpg","mimeType":"image/jpeg"},{"uri":"Laptop_14.jpg","mimeType":"image/jpeg"}],"samplers":[{"wrapS":10497,"wrapT":10497}],"meshes":[{"primitives":[{"mode":4,"attributes":{"POSITION":1,"NORMAL":2,"TEXCOORD_0":3},"material":0,"indices":0}]},{"primitives":[{"mode":4,"attributes":{"POSITION":5,"NORMAL":6,"TEXCOORD_0":7},"material":1,"indices":4}]},{"primitives":[{"mode":4,"attributes":{"POSITION":9,"NORMAL":10,"TEXCOORD_0":11,"TEXCOORD_1":12},"material":2,"indices":8}]},{"primitives":[{"mode":4,"attributes":{"POSITION":14,"NORMAL":15,"TEXCOORD_0":16,"TEXCOORD_1":17},"material":3,"indices":13}]},{"primitives":[{"mode":4,"attributes":{"POSITION":19,"NORMAL":20,"TEXCOORD_0":21,"TEXCOORD_1":22},"material":2,"indices":18}]},{"primitives":[{"mode":4,"attributes":{"POSITION":24,"NORMAL":25,"TEXCOORD_0":26,"TEXCOORD_1":27},"material":4,"indices":23}]},{"primitives":[{"mode":4,"attributes":{"POSITION":29,"NORMAL":30,"TEXCOORD_0":31,"TEXCOORD_1":32},"material":5,"indices":28}]},{"primitives":[{"mode":4,"attributes":{"POSITION":34,"NORMAL":35,"TEXCOORD_0":36,"TEXCOORD_1":37},"material":6,"indices":33}]},{"primitives":[{"mode":4,"attributes":{"POSITION":39,"NORMAL":40,"TEXCOORD_0":41,"TEXCOORD_1":42},"material":7,"indices":38}]},{"primitives":[{"mode":4,"attributes":{"POSITION":44,"NORMAL":45,"TEXCOORD_0":46,"TEXCOORD_1":47},"material":5,"indices":43}]},{"primitives":[{"mode":4,"attributes":{"POSITION":49,"NORMAL":50,"TEXCOORD_0":51,"TEXCOORD_1":52},"material":8,"indices":48}]},{"primitives":[{"mode":4,"attributes":{"POSITION":54,"NORMAL":55,"TEXCOORD_0":56,"TEXCOORD_1":57},"material":9,"indices":53}]}],"accessors":[{"bufferView":0,"byteOffset":0,"componentType":5125,"count":12,"type":"SCALAR"},{"bufferView":1,"byteOffset":0,"componentType":5126,"count":6,"max":[143.39100646972656,129.56915283203125,189.2006378173828],"min":[-143.39100646972656,68.32144165039062,20.92403793334961],"type":"VEC3"},{"bufferView":2,"byteOffset":0,"componentType":5126,"count":6,"type":"VEC3"},{"bufferView":3,"byteOffset":0,"componentType":5126,"count":6,"type":"VEC2"},{"bufferView":4,"byteOffset":0,"componentType":5125,"count":115464,"type":"SCALAR"},{"bufferView":5,"byteOffset":0,"componentType":5126,"count":21032,"max":[136.5885009765625,43.539703369140625,10.644200325012207],"min":[-136.64230346679688,-56.452598571777344,8.781800270080566],"type":"VEC3"},{"bufferView":6,"byteOffset":0,"componentType":5126,"count":21032,"type":"VEC3"},{"bufferView":7,"byteOffset":0,"componentType":5126,"count":21032,"type":"VEC2"},{"bufferView":8,"byteOffset":0,"componentType":5125,"count":163194,"type":"SCALAR"},{"bufferView":9,"byteOffset":0,"componentType":5126,"count":41583,"max":[152.05003356933594,61.44001007080078,10.178016662597656],"min":[-152.05003356933594,-150.9600372314453,0.228973388671875],"type":"VEC3"},{"bufferView":10,"byteOffset":0,"componentType":5126,"count":41583,"type":"VEC3"},{"bufferView":11,"byteOffset":0,"componentType":5126,"count":41583,"type":"VEC2"},{"bufferView":12,"byteOffset":0,"componentType":5126,"count":41583,"type":"VEC2"},{"bufferView":13,"byteOffset":0,"componentType":5125,"count":2400,"type":"SCALAR"},{"bufferView":14,"byteOffset":0,"componentType":5126,"count":788,"max":[120.16502380371094,61.368011474609375,9.477020263671875],"min":[-120.16502380371094,55.98501205444336,4.0940093994140625],"type":"VEC3"},{"bufferView":15,"byteOffset":0,"componentType":5126,"count":788,"type":"VEC3"},{"bufferView":16,"byteOffset":0,"componentType":5126,"count":788,"type":"VEC2"},{"bufferView":17,"byteOffset":0,"componentType":5126,"count":788,"type":"VEC2"},{"bufferView":18,"byteOffset":0,"componentType":5125,"count":46242,"type":"SCALAR"},{"bufferView":19,"byteOffset":0,"componentType":5126,"count":7991,"max":[152.05003356933594,135.6329803466797,202.46609497070312],"min":[-152.05003356933594,55.78001022338867,2.3170166015625],"type":"VEC3"},{"bufferView":20,"byteOffset":0,"componentType":5126,"count":7991,"type":"VEC3"},{"bufferView":21,"byteOffset":0,"componentType":5126,"count":7991,"type":"VEC2"},{"bufferView":22,"byteOffset":0,"componentType":5126,"count":7991,"type":"VEC2"},{"bufferView":23,"byteOffset":0,"componentType":5125,"count":357,"type":"SCALAR"},{"bufferView":24,"byteOffset":0,"componentType":5126,"count":127,"max":[149.95001220703125,133.40098571777344,200.444091796875],"min":[-149.95001220703125,62.59601593017578,5.907020568847656],"type":"VEC3"},{"bufferView":25,"byteOffset":0,"componentType":5126,"count":127,"type":"VEC3"},{"bufferView":26,"byteOffset":0,"componentType":5126,"count":127,"type":"VEC2"},{"bufferView":27,"byteOffset":0,"componentType":5126,"count":127,"type":"VEC2"},{"bufferView":28,"byteOffset":0,"componentType":5125,"count":10344,"type":"SCALAR"},{"bufferView":29,"byteOffset":0,"componentType":5126,"count":3524,"max":[150.92999267578125,135.0399932861328,201.49099731445312],"min":[-150.92999267578125,62.29999542236328,5.271999835968018],"type":"VEC3"},{"bufferView":30,"byteOffset":0,"componentType":5126,"count":3524,"type":"VEC3"},{"bufferView":31,"byteOffset":0,"componentType":5126,"count":3524,"type":"VEC2"},{"bufferView":32,"byteOffset":0,"componentType":5126,"count":3524,"type":"VEC2"},{"bufferView":33,"byteOffset":0,"componentType":5125,"count":5232,"type":"SCALAR"},{"bufferView":34,"byteOffset":0,"componentType":5126,"count":1469,"max":[151.5500030517578,43.73299789428711,9.859000205993652],"min":[-151.37899780273438,9.461000442504883,5.063000202178955],"type":"VEC3"},{"bufferView":35,"byteOffset":0,"componentType":5126,"count":1469,"type":"VEC3"},{"bufferView":36,"byteOffset":0,"componentType":5126,"count":1469,"type":"VEC2"},{"bufferView":37,"byteOffset":0,"componentType":5126,"count":1469,"type":"VEC2"},{"bufferView":38,"byteOffset":0,"componentType":5125,"count":540,"type":"SCALAR"},{"bufferView":39,"byteOffset":0,"componentType":5126,"count":180,"max":[67.87500762939453,-61.12202072143555,10.12799072265625],"min":[-67.87500762939453,-145.04605102539062,9.977973937988281],"type":"VEC3"},{"bufferView":40,"byteOffset":0,"componentType":5126,"count":180,"type":"VEC3"},{"bufferView":41,"byteOffset":0,"componentType":5126,"count":180,"type":"VEC2"},{"bufferView":42,"byteOffset":0,"componentType":5126,"count":180,"type":"VEC2"},{"bufferView":43,"byteOffset":0,"componentType":5125,"count":14880,"type":"SCALAR"},{"bufferView":44,"byteOffset":0,"componentType":5126,"count":2976,"max":[138.41552734375,49.965179443359375,3.061588764190674],"min":[-138.41551208496094,-135.12921142578125,0],"type":"VEC3"},{"bufferView":45,"byteOffset":0,"componentType":5126,"count":2976,"type":"VEC3"},{"bufferView":46,"byteOffset":0,"componentType":5126,"count":2976,"type":"VEC2"},{"bufferView":47,"byteOffset":0,"componentType":5126,"count":2976,"type":"VEC2"},{"bufferView":48,"byteOffset":0,"componentType":5125,"count":18576,"type":"SCALAR"},{"bufferView":49,"byteOffset":0,"componentType":5126,"count":5538,"max":[144.48301696777344,55.46100997924805,4.009010314941406],"min":[-144.48301696777344,-141.81103515625,2.2349700927734375],"type":"VEC3"},{"bufferView":50,"byteOffset":0,"componentType":5126,"count":5538,"type":"VEC3"},{"bufferView":51,"byteOffset":0,"componentType":5126,"count":5538,"type":"VEC2"},{"bufferView":52,"byteOffset":0,"componentType":5126,"count":5538,"type":"VEC2"},{"bufferView":53,"byteOffset":0,"componentType":5125,"count":118320,"type":"SCALAR"},{"bufferView":54,"byteOffset":0,"componentType":5126,"count":77980,"max":[151.15313720703125,44.91890335083008,10.178299903869629],"min":[-150.9624786376953,-58.564510345458984,5.30679988861084],"type":"VEC3"},{"bufferView":55,"byteOffset":0,"componentType":5126,"count":77980,"type":"VEC3"},{"bufferView":56,"byteOffset":0,"componentType":5126,"count":77980,"type":"VEC2"},{"bufferView":57,"byteOffset":0,"componentType":5126,"count":77980,"type":"VEC2"}],"bufferViews":[{"buffer":0,"byteOffset":0,"byteLength":48,"target":34963},{"buffer":0,"byteOffset":48,"byteLength":72,"target":34962},{"buffer":0,"byteOffset":120,"byteLength":72,"target":34962},{"buffer":0,"byteOffset":192,"byteLength":48,"target":34962},{"buffer":0,"byteOffset":240,"byteLength":461856,"target":34963},{"buffer":0,"byteOffset":462096,"byteLength":252384,"target":34962},{"buffer":0,"byteOffset":714480,"byteLength":252384,"target":34962},{"buffer":0,"byteOffset":966864,"byteLength":168256,"target":34962},{"buffer":0,"byteOffset":1135120,"byteLength":652776,"target":34963},{"buffer":0,"byteOffset":1787896,"byteLength":498996,"target":34962},{"buffer":0,"byteOffset":2286892,"byteLength":498996,"target":34962},{"buffer":0,"byteOffset":2785888,"byteLength":332664,"target":34962},{"buffer":0,"byteOffset":3118552,"byteLength":332664,"target":34962},{"buffer":0,"byteOffset":3451216,"byteLength":9600,"target":34963},{"buffer":0,"byteOffset":3460816,"byteLength":9456,"target":34962},{"buffer":0,"byteOffset":3470272,"byteLength":9456,"target":34962},{"buffer":0,"byteOffset":3479728,"byteLength":6304,"target":34962},{"buffer":0,"byteOffset":3486032,"byteLength":6304,"target":34962},{"buffer":0,"byteOffset":3492336,"byteLength":184968,"target":34963},{"buffer":0,"byteOffset":3677304,"byteLength":95892,"target":34962},{"buffer":0,"byteOffset":3773196,"byteLength":95892,"target":34962},{"buffer":0,"byteOffset":3869088,"byteLength":63928,"target":34962},{"buffer":0,"byteOffset":3933016,"byteLength":63928,"target":34962},{"buffer":0,"byteOffset":3996944,"byteLength":1428,"target":34963},{"buffer":0,"byteOffset":3998372,"byteLength":1524,"target":34962},{"buffer":0,"byteOffset":3999896,"byteLength":1524,"target":34962},{"buffer":0,"byteOffset":4001420,"byteLength":1016,"target":34962},{"buffer":0,"byteOffset":4002436,"byteLength":1016,"target":34962},{"buffer":0,"byteOffset":4003452,"byteLength":41376,"target":34963},{"buffer":0,"byteOffset":4044828,"byteLength":42288,"target":34962},{"buffer":0,"byteOffset":4087116,"byteLength":42288,"target":34962},{"buffer":0,"byteOffset":4129404,"byteLength":28192,"target":34962},{"buffer":0,"byteOffset":4157596,"byteLength":28192,"target":34962},{"buffer":0,"byteOffset":4185788,"byteLength":20928,"target":34963},{"buffer":0,"byteOffset":4206716,"byteLength":17628,"target":34962},{"buffer":0,"byteOffset":4224344,"byteLength":17628,"target":34962},{"buffer":0,"byteOffset":4241972,"byteLength":11752,"target":34962},{"buffer":0,"byteOffset":4253724,"byteLength":11752,"target":34962},{"buffer":0,"byteOffset":4265476,"byteLength":2160,"target":34963},{"buffer":0,"byteOffset":4267636,"byteLength":2160,"target":34962},{"buffer":0,"byteOffset":4269796,"byteLength":2160,"target":34962},{"buffer":0,"byteOffset":4271956,"byteLength":1440,"target":34962},{"buffer":0,"byteOffset":4273396,"byteLength":1440,"target":34962},{"buffer":0,"byteOffset":4274836,"byteLength":59520,"target":34963},{"buffer":0,"byteOffset":4334356,"byteLength":35712,"target":34962},{"buffer":0,"byteOffset":4370068,"byteLength":35712,"target":34962},{"buffer":0,"byteOffset":4405780,"byteLength":23808,"target":34962},{"buffer":0,"byteOffset":4429588,"byteLength":23808,"target":34962},{"buffer":0,"byteOffset":4453396,"byteLength":74304,"target":34963},{"buffer":0,"byteOffset":4527700,"byteLength":66456,"target":34962},{"buffer":0,"byteOffset":4594156,"byteLength":66456,"target":34962},{"buffer":0,"byteOffset":4660612,"byteLength":44304,"target":34962},{"buffer":0,"byteOffset":4704916,"byteLength":44304,"target":34962},{"buffer":0,"byteOffset":4749220,"byteLength":473280,"target":34963},{"buffer":0,"byteOffset":5222500,"byteLength":935760,"target":34962},{"buffer":0,"byteOffset":6158260,"byteLength":935760,"target":34962},{"buffer":0,"byteOffset":7094020,"byteLength":623840,"target":34962},{"buffer":0,"byteOffset":7717860,"byteLength":623840,"target":34962}],"scene":0,"scenes":[{"nodes":[0],"name":"laptop"}],"extensionsUsed":["KHR_texture_transform"],"buffers":[{"byteLength":8341700,"uri":"laptop.bin"}]}